<svg width="28" height="29" viewBox="0 0 28 29" fill="none" xmlns="http://www.w3.org/2000/svg">
<mask id="mask0_1_70" style="mask-type:luminance" maskUnits="userSpaceOnUse" x="0" y="0" width="29" height="29">
<rect x="0.000488281" y="0.5" width="28" height="28" fill="white"/>
</mask>
<g mask="url(#mask0_1_70)">
<path fill-rule="evenodd" clip-rule="evenodd" d="M25.4404 12.2148H24.5007V12.1663H14.0007V16.833H20.5941C19.6322 19.5496 17.0474 21.4997 14.0007 21.4997C10.1349 21.4997 7.00065 18.3654 7.00065 14.4997C7.00065 10.6339 10.1349 7.49967 14.0007 7.49967C15.7851 7.49967 17.4085 8.17284 18.6446 9.27242L21.9445 5.97251C19.8608 4.03059 17.0737 2.83301 14.0007 2.83301C7.55773 2.83301 2.33398 8.05676 2.33398 14.4997C2.33398 20.9426 7.55773 26.1663 14.0007 26.1663C20.4436 26.1663 25.6673 20.9426 25.6673 14.4997C25.6673 13.7174 25.5868 12.9538 25.4404 12.2148Z" fill="#FFC107"/>
<path fill-rule="evenodd" clip-rule="evenodd" d="M3.67871 9.06943L7.51179 11.8805C8.54896 9.31267 11.0608 7.49967 14.0002 7.49967C15.7846 7.49967 17.408 8.17284 18.6441 9.27242L21.944 5.97251C19.8604 4.03059 17.0732 2.83301 14.0002 2.83301C9.51905 2.83301 5.63288 5.36292 3.67871 9.06943Z" fill="#FF3D00"/>
<path fill-rule="evenodd" clip-rule="evenodd" d="M14.0005 26.1666C17.014 26.1666 19.7522 25.0133 21.8224 23.1379L18.2116 20.0824C17.0403 20.9697 15.5843 21.4999 14.0005 21.4999C10.966 21.4999 8.38942 19.565 7.41876 16.8647L3.61426 19.796C5.54509 23.5742 9.46626 26.1666 14.0005 26.1666Z" fill="#4CAF50"/>
<path fill-rule="evenodd" clip-rule="evenodd" d="M25.4402 12.2154H24.5005V12.167H14.0005V16.8337H20.5939C20.1319 18.1386 19.2925 19.2638 18.2098 20.0834C18.2104 20.0828 18.211 20.0828 18.2116 20.0822L21.8224 23.1377C21.5669 23.3699 25.6672 20.3337 25.6672 14.5003C25.6672 13.7181 25.5867 12.9545 25.4402 12.2154Z" fill="#1976D2"/>
</g>
</svg>
